<?xml version="1.0" encoding="iso-8859-1"?>
<!-- Generator: Adobe Illustrator 19.0.0, SVG Export Plug-In . SVG Version: 6.00 Build 0)  -->
<svg xmlns="http://www.w3.org/2000/svg" xmlns:xlink="http://www.w3.org/1999/xlink" version="1.1" id="Layer_1" x="0px" y="0px" viewBox="0 0 512.002 512.002" style="enable-background:new 0 0 512.002 512.002;" xml:space="preserve" width="512px" height="512px">
<g>
	<g>
		<path d="M504.499,279.207c-4.145,0-7.503,3.359-7.503,7.503c0,22.341-18.929,40.516-42.197,40.516    c-23.267,0-42.196-18.175-42.196-40.516c0-4.144-3.358-7.503-7.503-7.503s-7.503,3.359-7.503,7.503    c0,22.341-18.929,40.516-42.197,40.516c-23.267,0-42.196-18.175-42.196-40.516c0-4.144-3.358-7.503-7.503-7.503    s-7.503,3.359-7.503,7.503c0,15.59-9.224,29.143-22.702,35.915c-6.012-11.171-11.24-22.365-15.565-33.348    c-1.519-3.856-5.875-5.751-9.73-4.233c-3.855,1.518-5.751,5.874-4.233,9.73c4.181,10.619,9.166,21.409,14.841,32.18    c-1.579,0.173-3.181,0.271-4.808,0.271c-23.267,0-42.196-18.175-42.196-40.516c0-4.144-3.359-7.503-7.503-7.503    c-4.144,0-7.503,3.359-7.503,7.503c0,22.341-18.929,40.516-42.196,40.516c-20.543,0-39.472-21.625-46.031-52.588    c-7.68-36.254,2.733-87.188,57.355-111.416c25.755-11.425,50.954-11.543,75.218-0.44c-15.725,28.625-17.545,66.023-5.187,108.616    c0.952,3.281,3.95,5.414,7.203,5.414c0.692,0,1.397-0.097,2.094-0.299c3.979-1.154,6.269-5.317,5.115-9.297    c-11.225-38.69-9.835-72.18,3.953-97.252c4.104,2.608,8.177,5.544,12.22,8.812c24.572,19.87,38.744,45.008,38.881,45.253    c1.414,2.545,4.175,4.041,7.072,3.843c2.903-0.198,5.43-2.058,6.482-4.771c6.24-16.079,8.581-30.335,8.479-42.758    c11.553,21.591,18.737,42.217,18.851,42.543c1.027,2.975,3.803,5.103,6.951,5.103c0.047,0,0.094,0,0.142,0    c3.09,0,5.871-1.948,6.994-4.838c5.888-15.17,5.541-38.445,3.968-56.666c14.713,24.634,23.097,55.444,23.206,55.85    c0.767,2.87,3.154,5.01,6.089,5.469c2.942,0.461,5.863-0.861,7.47-3.359c19.718-30.671,18.562-74.278-3.017-113.801    c-14.139-25.9-35.836-47.849-62.744-63.474C306.787,29.414,271.051,20.41,231.151,20.41c-54.635,0-105.616,21.038-143.55,59.238    C46.548,120.989,24.85,177.818,24.85,243.997c0,50.061,10.854,98.338,32.259,143.489c1.284,2.706,3.977,4.291,6.785,4.291    c1.076,0,2.171-0.233,3.209-0.725c3.744-1.775,5.34-6.249,3.565-9.994c-20.446-43.126-30.813-89.24-30.813-137.061    c0-136.935,96.233-208.58,191.295-208.58c69.375,0,127.613,30.811,155.789,82.419c15.286,28,19.127,57.978,11.245,82.198    c-6.869-19.212-19.631-48.727-37.733-65.222c-2.388-2.175-5.896-2.578-8.716-1.002c-2.818,1.577-4.313,4.779-3.708,7.951    c1.839,9.656,4.882,31.656,4.315,51.097c-8.183-18.144-20.863-42.157-36.415-58.132c-2.67-2.742-6.973-3.035-9.988-0.685    c-3.017,2.352-3.782,6.596-1.776,9.853c7.526,12.222,14.2,31.832,7.472,59.185c-7.112-9.865-18.355-23.52-33.297-35.677    c-36.204-29.453-76.487-35.64-116.495-17.895c-62.827,27.868-74.794,86.5-65.951,128.242    c3.707,17.502,11.322,33.465,21.441,44.947c11.263,12.781,24.843,19.538,39.269,19.538c21.253,0,39.837-11.31,49.699-28.054    c9.862,16.743,28.446,28.054,49.699,28.054s39.837-11.31,49.7-28.054c9.861,16.743,28.446,28.054,49.699,28.054    s39.837-11.31,49.7-28.054c9.861,16.743,28.446,28.054,49.699,28.054c31.541,0,57.203-24.907,57.203-55.521    C512.002,282.567,508.644,279.207,504.499,279.207z" fill="#FFFFFF"/>
	</g>
</g>
<g>
	<g>
		<path d="M504.497,356.54c-4.145,0-7.503,3.359-7.503,7.503c0,22.341-18.929,40.516-42.197,40.516    c-23.267,0-42.196-18.175-42.196-40.516c0-4.144-3.358-7.503-7.503-7.503s-7.503,3.359-7.503,7.503    c0,22.341-18.929,40.516-42.197,40.516c-23.267,0-42.196-18.175-42.196-40.516c0-4.144-3.358-7.503-7.503-7.503    s-7.503,3.359-7.503,7.503c0,22.341-18.929,40.516-42.197,40.516c-23.267,0-42.196-18.175-42.196-40.516    c0-4.144-3.359-7.503-7.503-7.503c-4.144,0-7.503,3.359-7.503,7.503c0,22.341-18.929,40.516-42.196,40.516    c-23.267,0-42.197-18.175-42.197-40.516c0-4.144-3.359-7.503-7.503-7.503c-4.144,0-7.503,3.359-7.503,7.503    c0,22.341-18.929,40.516-42.196,40.516s-42.195-18.175-42.195-40.516c0-4.144-3.359-7.503-7.503-7.503    c-4.144,0-7.503,3.359-7.503,7.503c0,30.615,25.661,55.521,57.202,55.521c21.253,0,39.837-11.31,49.699-28.054    c9.862,16.743,28.446,28.054,49.7,28.054c21.253,0,39.837-11.31,49.699-28.054c9.862,16.743,28.446,28.054,49.699,28.054    s39.837-11.31,49.7-28.054c9.861,16.743,28.446,28.054,49.699,28.054s39.837-11.31,49.7-28.054    c9.861,16.743,28.446,28.054,49.699,28.054c31.541,0,57.203-24.907,57.203-55.521C512,359.899,508.641,356.54,504.497,356.54z" fill="#FFFFFF"/>
	</g>
</g>
<g>
	<g>
		<path d="M504.497,428.568c-4.145,0-7.503,3.359-7.503,7.503c0,22.341-18.929,40.516-42.197,40.516    c-23.267,0-42.196-18.175-42.196-40.516c0-4.144-3.358-7.503-7.503-7.503s-7.503,3.359-7.503,7.503    c0,22.341-18.929,40.516-42.197,40.516c-23.267,0-42.196-18.175-42.196-40.516c0-4.144-3.358-7.503-7.503-7.503    s-7.503,3.359-7.503,7.503c0,22.341-18.929,40.516-42.197,40.516c-23.267,0-42.196-18.175-42.196-40.516    c0-4.144-3.359-7.503-7.503-7.503c-4.144,0-7.503,3.359-7.503,7.503c0,22.341-18.929,40.516-42.196,40.516    c-23.267,0-42.197-18.175-42.197-40.516c0-4.144-3.359-7.503-7.503-7.503c-4.144,0-7.503,3.359-7.503,7.503    c0,22.341-18.929,40.516-42.196,40.516s-42.195-18.175-42.195-40.516c0-4.144-3.359-7.503-7.503-7.503    c-4.144,0-7.503,3.359-7.503,7.503c0,30.615,25.661,55.521,57.202,55.521c21.253,0,39.837-11.31,49.699-28.054    c9.862,16.743,28.446,28.054,49.7,28.054c21.253,0,39.837-11.31,49.699-28.054c9.862,16.743,28.446,28.054,49.699,28.054    s39.837-11.31,49.7-28.054c9.861,16.743,28.446,28.054,49.699,28.054s39.837-11.31,49.7-28.054    c9.861,16.743,28.446,28.054,49.699,28.054c31.541,0,57.203-24.907,57.203-55.521C512,431.927,508.641,428.568,504.497,428.568z" fill="#FFFFFF"/>
	</g>
</g>
<g>
</g>
<g>
</g>
<g>
</g>
<g>
</g>
<g>
</g>
<g>
</g>
<g>
</g>
<g>
</g>
<g>
</g>
<g>
</g>
<g>
</g>
<g>
</g>
<g>
</g>
<g>
</g>
<g>
</g>
</svg>
